<svg width="240" height="240" viewBox="0 0 240 240" fill="none" xmlns="http://www.w3.org/2000/svg">
<path d="M64.1466 91.8732C66.2409 89.1805 67.7368 85.5902 67.288 82C64.1466 82.1496 60.4067 84.0943 58.1628 86.6374C56.2181 88.8813 54.423 92.6211 54.8718 96.0618C58.462 96.5106 61.9027 94.5658 64.1466 91.8732ZM67.288 96.9593C62.2019 96.6602 57.8637 99.8016 55.4702 99.8016C53.0767 99.8016 49.3368 97.1089 45.2978 97.1089C40.062 97.2585 35.2751 100.101 32.5824 104.888C27.197 114.312 31.0864 128.224 36.4718 135.854C39.0149 139.593 42.1563 143.782 46.1954 143.632C50.0848 143.483 51.5807 141.089 56.2181 141.089C60.8555 141.089 62.2019 143.632 66.3905 143.483C70.5791 143.333 73.2718 139.743 75.8149 135.854C78.8067 131.515 80.0035 127.327 80.0035 127.177C79.8539 127.028 71.7758 124.036 71.7758 114.761C71.6263 106.982 78.0588 103.242 78.358 103.093C74.9173 97.7073 69.2328 97.1089 67.288 96.9593Z" fill="#FDFDFD"/>
<path d="M111.268 86.3381C122.338 86.3381 129.967 93.9674 129.967 104.888C129.967 115.958 122.188 123.587 110.968 123.587H98.8514V142.884H90.0254V86.3381H111.268ZM98.8514 116.257H108.874C116.503 116.257 120.842 112.068 120.842 105.037C120.842 97.8568 116.503 93.8178 108.874 93.8178H98.7018V116.257H98.8514ZM132.211 131.366C132.211 124.185 137.746 119.697 147.619 119.099L158.988 118.501V115.359C158.988 110.722 155.846 108.029 150.76 108.029C145.824 108.029 142.832 110.423 142.084 114.013H134.006C134.455 106.533 140.887 100.998 151.06 100.998C161.082 100.998 167.515 106.234 167.515 114.611V143.034H159.437V136.302H159.287C156.894 140.94 151.658 143.782 146.273 143.782C137.895 143.782 132.211 138.696 132.211 131.366ZM158.988 127.626V124.335L148.816 124.933C143.729 125.232 140.887 127.476 140.887 131.067C140.887 134.657 143.879 137.05 148.367 137.05C154.351 137.05 158.988 133.011 158.988 127.626ZM174.994 158.293V151.411C175.593 151.561 177.089 151.561 177.687 151.561C181.577 151.561 183.671 149.915 185.017 145.727C185.017 145.577 185.765 143.184 185.765 143.184L170.806 101.896H179.931L190.403 135.554H190.552L201.024 101.896H209.999L194.591 145.428C191.001 155.45 186.962 158.592 178.435 158.592C177.837 158.442 175.742 158.442 174.994 158.293Z" fill="#FDFDFD"/>
</svg>
