<svg width="240" height="240" viewBox="0 0 240 240" fill="none" xmlns="http://www.w3.org/2000/svg">
<path d="M115.135 118.927V139.873H108.484V88.1337H126.113C130.365 88.0433 134.474 89.6568 137.528 92.6124C140.619 95.3947 142.361 99.3757 142.293 103.53C142.384 107.715 140.642 111.726 137.528 114.516C134.444 117.456 130.637 118.927 126.113 118.919L115.135 118.927ZM115.135 94.505V112.571H126.279C128.752 112.646 131.134 111.673 132.853 109.894C136.344 106.501 136.427 100.914 133.027 97.4229C132.966 97.3626 132.914 97.3023 132.853 97.2495C131.157 95.4324 128.759 94.4371 126.279 94.505H115.135ZM157.614 103.319C162.53 103.319 166.406 104.631 169.248 107.255C172.091 109.879 173.508 113.483 173.508 118.052V139.873H167.152V134.957H166.866C164.114 139.005 160.449 141.026 155.88 141.026C151.982 141.026 148.717 139.873 146.093 137.558C143.545 135.409 142.097 132.227 142.158 128.887C142.158 125.222 143.545 122.312 146.312 120.148C149.079 117.984 152.774 116.898 157.403 116.898C161.347 116.898 164.604 117.622 167.152 119.062V117.539C167.167 115.262 166.157 113.106 164.408 111.658C162.651 110.075 160.359 109.208 157.991 109.238C154.282 109.238 151.341 110.806 149.177 113.935L143.326 110.248C146.538 105.626 151.303 103.319 157.614 103.319ZM149.011 129.038C149.004 130.757 149.826 132.37 151.213 133.373C152.683 134.527 154.508 135.145 156.378 135.107C159.183 135.1 161.874 133.984 163.857 132.001C166.059 129.927 167.16 127.5 167.16 124.702C165.086 123.051 162.199 122.222 158.489 122.222C155.79 122.222 153.535 122.87 151.733 124.174C149.916 125.501 149.011 127.107 149.011 129.038ZM210.002 104.473L187.812 155.48H180.95L189.184 137.633L174.587 104.473H181.81L192.358 129.905H192.501L202.763 104.473H210.002Z" fill="#FDFDFD"/>
<path d="M88.2687 114.403C88.2687 112.374 88.1028 110.354 87.756 108.356H59.7227V119.801H75.7751C75.1116 123.496 72.9703 126.761 69.8412 128.834V136.268H79.4244C85.0341 131.104 88.2687 123.451 88.2687 114.403Z" fill="#4285F4"/>
<path d="M59.7215 143.454C67.744 143.454 74.4997 140.823 79.4233 136.276L69.8401 128.842C67.171 130.651 63.7403 131.684 59.7215 131.684C51.9705 131.684 45.3882 126.459 43.0357 119.417H33.166V127.077C38.2102 137.12 48.4871 143.454 59.7215 143.454Z" fill="#34A853"/>
<path d="M43.0365 119.417C41.7924 115.73 41.7924 111.726 43.0365 108.039V100.378H33.1668C28.9444 108.778 28.9444 118.678 33.1668 127.077L43.0365 119.417Z" fill="#FBBC04"/>
<path d="M59.7215 95.7716C63.959 95.7037 68.0531 97.3022 71.1219 100.228L79.6118 91.7453C74.2283 86.6936 67.1031 83.9189 59.7215 84.0018C48.4871 84.0018 38.2102 90.3429 33.166 100.378L43.0357 108.039C45.3882 100.997 51.9705 95.7716 59.7215 95.7716Z" fill="#EA4335"/>
</svg>
