<svg width="240" height="240" viewBox="0 0 240 240" fill="none" xmlns="http://www.w3.org/2000/svg">
<g clip-path="url(#clip0_318_564)">
<path d="M80.0072 60H160.007C173.336 60 180.014 66.6643 180.014 80.0072V160.007C180.014 173.336 173.35 180.014 160.007 180.014H80.0072C66.6787 180.014 60 173.35 60 160.007V80.0072C60 66.6787 66.6787 60 80.0072 60Z" fill="#7C2279"/>
<path d="M128.364 121.597C127.063 120.34 126.658 120.369 125.559 121.829C122.697 125.674 119.82 129.519 116.958 133.365C116.105 134.521 116.018 134.521 115.078 133.365C113.821 131.832 112.578 130.286 111.305 128.768C110.568 127.9 110.091 127.915 109.397 128.782C108.92 129.36 108.487 129.982 108.038 130.589C107.099 131.861 107.099 132.179 108.082 133.394C110.337 136.169 112.592 138.93 114.847 141.691C116.09 143.209 116.452 143.209 117.594 141.662C120.557 137.644 123.521 133.625 126.499 129.606C126.745 129.274 127.12 129.057 127.438 128.768C127.699 129.129 128.089 129.447 128.219 129.852C129.882 134.94 128.942 139.552 125.169 143.339C121.396 147.127 116.741 148.182 111.652 146.404C104.988 144.062 101.49 137.037 103.528 130.502C105.624 123.824 112.491 119.978 119.401 121.829C122.35 122.624 121.858 123 124.099 119.877C124.157 119.819 124.186 119.747 124.215 119.675C124.417 118.966 124.938 118.778 125.588 118.836C126.643 118.937 126.976 118.432 126.961 117.434C126.947 114.904 126.961 112.36 127.048 109.83C127.077 109.122 127.265 108.442 127.597 107.821C129.91 103.715 132.281 99.6386 134.638 95.5475C134.84 95.1861 135.028 94.8103 135.404 94.1019C133.264 94.1019 131.414 94.1308 129.563 94.0875C128.739 94.073 128.248 94.3621 127.901 95.1283C126.846 97.4268 125.733 99.7109 124.62 101.995C124.475 102.284 124.2 102.53 123.983 102.79C123.738 102.515 123.42 102.284 123.261 101.966C122.191 99.7109 121.165 97.4268 120.066 95.1861C119.849 94.738 119.357 94.1308 118.982 94.1019C116.972 93.9863 114.948 94.0441 112.621 94.0441C112.925 94.6657 113.084 95.056 113.286 95.4319C115.556 99.4796 117.84 103.513 120.109 107.561C120.369 108.038 120.687 108.572 120.702 109.078C120.745 111.478 120.716 113.849 120.702 116.234C120.702 116.971 120.312 117.188 119.618 117.044C118.88 116.899 118.114 116.682 117.377 116.74C116.09 116.827 115.454 116.292 115.021 115.107C112.794 109.165 110.51 103.253 108.241 97.3401C106.651 93.2201 107.359 94.073 103.412 93.9863C101.461 93.9429 101.446 94.0007 100.738 95.7933C98.0926 102.501 95.4471 109.209 92.7872 115.916C91.703 118.663 91.385 118.648 94.5798 118.634C97.8902 118.634 97.9047 118.648 99.1334 115.627C99.4081 114.948 99.7984 114.63 100.55 114.644C102.892 114.673 105.248 114.702 107.59 114.673C109.253 114.644 109.065 116.075 109.484 117C109.874 117.882 108.992 118.012 108.458 118.258C101.258 121.641 96.9939 129.115 98.4974 137.485C99.9719 145.754 106.795 151.522 115.136 151.912C122.639 152.273 129.361 148.095 132.339 141.243C135.201 134.565 133.611 126.671 128.364 121.597ZM106.015 109.483C104.742 109.541 103.47 109.541 102.198 109.483C101.996 109.469 101.591 108.977 101.634 108.818C102.357 106.65 103.152 104.496 103.933 102.342C103.947 102.284 104.063 102.27 104.41 102.082C105.162 104.38 105.884 106.578 106.549 108.804C106.607 108.963 106.217 109.483 106.015 109.483Z" fill="white"/>
<path d="M167.076 122.768C165.848 122.754 164.605 122.797 163.376 122.739C162.451 122.696 161.93 123.014 161.612 123.925C160.109 128.146 158.562 132.338 157.015 136.545C156.827 137.065 156.552 137.557 156.191 138.366C155.873 137.644 155.671 137.268 155.526 136.863C155.078 135.591 154.586 134.333 154.268 133.032C154.095 132.309 154.052 131.456 154.268 130.762C154.991 128.464 155.859 126.194 156.697 123.939C157.044 123.014 156.726 122.681 155.815 122.696C154.341 122.696 152.866 122.71 151.406 122.667C150.51 122.638 150.062 123 149.787 123.867C148.414 128.29 146.997 132.714 145.566 137.123C145.465 137.412 145.19 137.658 145.002 137.918C144.814 137.644 144.554 137.398 144.453 137.109C142.978 132.714 141.518 128.319 140.087 123.91C139.783 122.985 139.306 122.537 138.28 122.595C136.936 122.653 135.577 122.58 134.232 122.595C133.105 122.609 132.975 122.812 133.394 123.881C135.981 130.705 138.555 137.513 141.142 144.337C142.516 147.98 142.039 147.3 145.479 147.372C147.619 147.416 147.662 147.344 148.414 145.392C149.035 143.744 149.7 142.096 150.336 140.448L150.799 140.405C151.262 141.561 151.724 142.703 152.172 143.86C153.893 148.269 152.722 147.242 157.405 147.474C158.403 147.517 158.938 147.083 159.285 146.187C160.297 143.599 161.337 141.041 162.393 138.468C164.315 133.784 166.267 129.1 168.204 124.402C168.782 122.971 168.652 122.783 167.076 122.768ZM94.9406 122.363C93.7841 122.392 92.6276 122.421 91.4856 122.349C90.3869 122.277 90.0255 122.725 90.0255 123.795C90.0255 127.322 89.9677 130.849 89.9243 134.376C89.9243 134.81 89.8087 135.229 89.7364 135.663L89.4184 135.721C89.1871 135.388 88.9269 135.056 88.71 134.709C86.3681 130.936 84.0118 127.177 81.6844 123.39C81.2218 122.624 80.6724 122.262 79.7617 122.291C78.3306 122.335 76.8994 122.32 75.4682 122.277C74.6153 122.248 74.2395 122.58 74.2395 123.448C74.2106 130.893 74.1672 138.337 74.1094 145.797C74.1094 146.664 74.4997 147.011 75.3381 146.997C76.4513 146.968 77.5644 146.939 78.6775 147.026C79.8484 147.112 80.1809 146.65 80.1809 145.522C80.1665 141.605 80.2243 137.672 80.2677 133.755C80.2677 133.336 80.3833 132.916 80.4411 132.483L80.7736 132.425C81.0338 132.801 81.2941 133.177 81.5253 133.552C83.9829 137.629 86.426 141.706 88.869 145.782C89.2594 146.433 89.6208 147.069 90.5749 147.054C92.0494 147.011 93.5239 147.04 94.984 147.069C95.7501 147.083 96.0537 146.722 96.0537 145.985C96.0826 138.496 96.126 131.008 96.1838 123.52C96.1838 122.624 95.7646 122.335 94.9406 122.363ZM75.6995 118.547C76.9283 118.489 78.1715 118.504 79.4003 118.562C80.3978 118.619 80.7447 118.2 80.7447 117.246C80.7303 115.222 80.8025 113.198 80.7736 111.189C80.7592 110.235 81.1061 109.83 82.1036 109.859C83.5637 109.917 85.0526 109.931 86.5127 109.844C90.5893 109.599 93.7263 106.014 93.654 101.764C93.5817 97.4412 90.2857 93.9283 86.1802 93.8705C82.7686 93.8127 79.3425 93.8705 75.9308 93.7982C74.8755 93.7838 74.5431 94.1885 74.5575 95.2005C74.6009 98.8434 74.572 102.486 74.572 106.129H74.4563C74.4563 109.816 74.4852 113.502 74.4419 117.188C74.3985 118.157 74.6876 118.59 75.6995 118.547ZM80.817 101.807C80.8893 98.4242 80.3544 98.959 84.3732 98.959C86.585 98.959 87.886 101.2 86.9175 103.18C86.426 104.178 85.6309 104.756 84.4888 104.785C84.2576 104.785 84.0118 104.785 83.7805 104.785C80.499 104.741 80.817 105.262 80.817 101.807Z" fill="white"/>
</g>
<defs>
<clipPath id="clip0_318_564">
<rect width="120" height="120" fill="white" transform="translate(60 60)"/>
</clipPath>
</defs>
</svg>
