<svg width="240" height="240" viewBox="0 0 240 240" fill="none" xmlns="http://www.w3.org/2000/svg">
<path d="M183.936 137.161H164.611V102.69H183.936V137.161Z" fill="#FF5F00"/>
<path d="M165.849 119.923C165.849 112.93 169.148 106.701 174.285 102.687C170.528 99.752 165.788 98 160.635 98C148.438 98 138.551 107.815 138.551 119.923C138.551 132.031 148.438 141.846 160.635 141.846C165.788 141.846 170.528 140.094 174.285 137.159C169.148 133.145 165.849 126.916 165.849 119.923Z" fill="#EB001B"/>
<path d="M209.999 119.923C209.999 132.031 200.112 141.846 187.914 141.846C182.762 141.846 178.021 140.094 174.264 137.159C179.402 133.145 182.7 126.916 182.7 119.923C182.7 112.93 179.402 106.701 174.264 102.687C178.021 99.752 182.762 98 187.914 98C200.112 98 209.999 107.815 209.999 119.923Z" fill="#F79E1B"/>
<path d="M80.2493 104.138L73.4716 135.834H65.2692L72.0571 104.138H80.2493ZM114.754 124.603L119.068 112.699L121.555 124.603H114.754ZM123.9 135.834H131.487L124.868 104.138H117.867C117.857 104.138 117.843 104.138 117.833 104.138C116.28 104.138 114.947 105.089 114.385 106.439L114.375 106.463L102.075 135.834H110.683L112.395 131.097H122.916L123.9 135.834ZM102.498 125.486C102.532 117.118 90.9285 116.658 91.0097 112.919C91.0368 111.782 92.1162 110.571 94.4849 110.263C94.9248 110.219 95.4324 110.192 95.9467 110.192C98.3526 110.192 100.633 110.74 102.664 111.721L102.572 111.681L104.01 104.957C101.733 104.074 99.097 103.559 96.3426 103.549H96.3392C88.2316 103.549 82.53 107.864 82.4792 114.032C82.4285 118.594 86.5499 121.135 89.6596 122.658C92.8573 124.211 93.93 125.209 93.913 126.593C93.8927 128.725 91.3684 129.659 89.0065 129.696C88.8983 129.699 88.7663 129.699 88.6377 129.699C85.6904 129.699 82.9157 128.958 80.4929 127.649L80.5843 127.693L79.0988 134.636C81.7585 135.702 84.8411 136.318 88.0692 136.318C88.12 136.318 88.1707 136.318 88.2215 136.318H88.2147C96.8299 136.318 102.464 132.065 102.494 125.476L102.498 125.486ZM68.5312 104.138L55.2465 135.834H46.5772L40.0397 110.533C39.9145 109.302 39.1599 108.273 38.1109 107.759L38.0906 107.749C35.7626 106.605 33.0556 105.674 30.2233 105.089L30 105.052L30.1963 104.135H44.151C46.0527 104.135 47.6329 105.525 47.9273 107.343L47.9307 107.363L51.3856 125.706L59.9195 104.131L68.5312 104.138Z" fill="#FDFDFD"/>
</svg>
