<svg width="28" height="24" viewBox="0 0 28 24" fill="none" xmlns="http://www.w3.org/2000/svg">
<g clip-path="url(#clip0_260_586)">
<path fill-rule="evenodd" clip-rule="evenodd" d="M26 6H24H4H2V22H26V6ZM0 4V24H28V4H0Z" fill="#258FFF"/>
<path d="M4 0H24V6V20H4V6V0Z" fill="#FDFDFD"/>
<path fill-rule="evenodd" clip-rule="evenodd" d="M22 2H6V18H22V2ZM4 0V6V20H24V6V0H4Z" fill="#258FFF"/>
<path d="M4 6H2V22H26V6H24V20H4V6Z" fill="#FDFDFD"/>
<path d="M17.5007 6.50002C18.145 6.50002 18.6673 5.97769 18.6673 5.33335C18.6673 4.68902 18.145 4.16669 17.5007 4.16669C16.8563 4.16669 16.334 4.68902 16.334 5.33335C16.334 5.97769 16.8563 6.50002 17.5007 6.50002Z" fill="#258FFF"/>
<path d="M17.4037 10.0082L14.8691 10.4311L16.7883 8.03184C16.8903 7.90409 16.9341 7.73959 16.909 7.578C16.8839 7.41642 16.7923 7.27292 16.6558 7.18192L13.1558 4.84859C12.9248 4.694 12.6168 4.72434 12.4197 4.9215L10.0863 7.25484L10.9112 8.07967L12.9062 6.08467L14.4135 7.08975L12.8496 9.04509C12.4798 8.91034 12.0819 8.83334 11.666 8.83334C10.9112 8.83334 10.2135 9.076 9.64127 9.48375L10.4877 10.3302C10.8348 10.126 11.2349 10 11.666 10C12.9528 10 13.9993 11.0465 13.9993 12.3333C13.9993 12.7644 13.8733 13.1646 13.6692 13.5117L14.5156 14.3581C14.9233 13.7858 15.166 13.0882 15.166 12.3333C15.166 12.0738 15.1351 11.8212 15.0814 11.5779L16.916 11.2723V14.6667H18.0827V10.5833C18.0827 10.4118 18.0074 10.2491 17.8762 10.1383C17.7461 10.028 17.574 9.98075 17.4037 10.0082ZM11.666 14.6667C10.3792 14.6667 9.33268 13.6202 9.33268 12.3333C9.33268 11.9023 9.45868 11.5021 9.66285 11.155L8.81643 10.3086C8.40868 10.8808 8.16602 11.5785 8.16602 12.3333C8.16602 14.2636 9.73577 15.8333 11.666 15.8333C12.4208 15.8333 13.1185 15.5907 13.6908 15.1829L12.8443 14.3365C12.4973 14.5407 12.0971 14.6667 11.666 14.6667Z" fill="#258FFF"/>
</g>
<defs>
<clipPath id="clip0_260_586">
<rect width="28" height="24" fill="white"/>
</clipPath>
</defs>
</svg>
