<svg width="92" height="92" viewBox="0 0 92 92" fill="none" xmlns="http://www.w3.org/2000/svg">
<rect width="92" height="92" fill="#9B51E0"/>
<path fill-rule="evenodd" clip-rule="evenodd" d="M16 68V32L28.9714 39.8276V32H48.3222C48.1112 31.0335 48 30.0297 48 29C48 21.268 54.268 15 62 15C69.732 15 76 21.268 76 29C76 35.342 71.783 40.6991 66 42.4202V68H28.9714V60.1724L16 68ZM20 39.0857V60.9143L28.9714 55.5005V44.4995L20 39.0857ZM62 64H32.9714V57.7586L45.8286 50L32.9714 42.2414V36H49.8729C52.2936 40.1846 56.818 43 62 43V64ZM72 29C72 23.4772 67.5228 19 62 19C56.4772 19 52 23.4772 52 29C52 30.0452 52.1604 31.053 52.4578 32H66V38.1679C69.5318 36.6248 72 33.1006 72 29ZM38.0866 50L32.9714 46.9133V53.0868L38.0866 50ZM54.8586 36C56.6735 37.8514 59.2026 39 62 39V36H54.8586Z" fill="#FDFDFD"/>
</svg>
