<svg width="162" height="58" viewBox="0 0 162 58" fill="none" xmlns="http://www.w3.org/2000/svg">
<path fill-rule="evenodd" clip-rule="evenodd" d="M32.9005 23.9654C32.7703 23.3691 32.7017 22.7497 32.7017 22.1143C32.7017 17.3435 36.5692 13.476 41.34 13.476C46.1108 13.476 49.9783 17.3435 49.9783 22.1143C49.9783 26.0275 47.3763 29.333 43.8081 30.3949V46.1782H20.9607V41.3484L12.957 46.1782V23.9654L20.9607 28.7952V23.9654H32.9005ZM41.34 28.2845V26.4335H36.9336C38.0534 27.5758 39.6139 28.2845 41.34 28.2845ZM35.4523 23.9654C35.2687 23.3811 35.1698 22.7592 35.1698 22.1143C35.1698 18.7066 37.9323 15.9441 41.34 15.9441C44.7477 15.9441 47.5102 18.7066 47.5102 22.1143C47.5102 24.6445 45.9873 26.819 43.8081 27.7711V23.9654H35.4523ZM41.34 30.7526C38.1426 30.7526 35.351 29.0155 33.8574 26.4335H23.4288V30.2845L31.3619 35.0718L23.4288 39.859V43.7101H41.34V30.7526ZM15.4251 41.8062L20.9607 38.4657V31.6778L15.4251 28.3374V41.8062ZM26.5849 35.0718L23.4288 33.1672V36.9764L26.5849 35.0718Z" stroke="#9B51E0" stroke-width="0.925532"/>
<path d="M79.2681 23.9445L74.2773 17.8301H77.4586L80.9002 22.0758L84.3417 17.8301H87.5112L82.5322 23.9445L87.5112 30.0825H84.3535L80.9002 25.8367L77.4468 30.0825H74.2773L79.2681 23.9445Z" fill="#FDFDFD"/>
<path d="M69.5938 14.495C69.5938 14.0692 69.7436 13.7065 70.0432 13.4069C70.3428 13.1073 70.7055 12.9575 71.1312 12.9575C71.557 12.9575 71.9197 13.1073 72.2193 13.4069C72.5189 13.7065 72.6687 14.0692 72.6687 14.495C72.6687 14.9207 72.5189 15.2834 72.2193 15.583C71.9197 15.8826 71.557 16.0324 71.1312 16.0324C70.7055 16.0324 70.3428 15.8826 70.0432 15.583C69.7436 15.2834 69.5938 14.9207 69.5938 14.495ZM69.8776 17.8301H72.3848V30.0824H69.8776V17.8301Z" fill="#FDFDFD"/>
<path d="M56.0411 16.7775C56.0411 16.131 56.1988 15.5436 56.5142 15.0153C56.8374 14.4792 57.2632 14.0534 57.7915 13.7381C58.3276 13.4227 58.9189 13.265 59.5654 13.265H67.0399V30.0824H64.5445V15.7486H59.5654C59.2816 15.7486 59.0372 15.8511 58.8322 16.0561C58.6351 16.2532 58.5365 16.4937 58.5365 16.7775V17.8301H62.3447V20.3136H58.5365V30.0824H56.0411V16.7775Z" fill="#FDFDFD"/>
<path d="M137.984 36.6537C137.984 36.015 138.142 35.4355 138.457 34.9152C138.781 34.3948 139.206 33.9809 139.735 33.6734C140.271 33.3659 140.862 33.2121 141.509 33.2121H148.699V35.7076H141.509C141.225 35.7076 140.98 35.8022 140.775 35.9914C140.578 36.1727 140.48 36.3935 140.48 36.6537V36.9493C140.48 37.2174 140.578 37.4461 140.775 37.6353C140.98 37.8245 141.225 37.9191 141.509 37.9191H145.979C146.626 37.9191 147.213 38.0768 147.741 38.3922C148.277 38.6997 148.703 39.1136 149.019 39.634C149.334 40.1544 149.492 40.7339 149.492 41.3725V42.0111C149.492 42.6419 149.334 43.2214 149.019 43.7496C148.703 44.27 148.277 44.6879 147.741 45.0033C147.213 45.3108 146.626 45.4645 145.979 45.4645H138.54V42.9691H145.979C146.263 42.9691 146.503 42.8745 146.701 42.6853C146.906 42.496 147.008 42.2674 147.008 41.9993V41.3843C147.008 41.1084 146.906 40.8758 146.701 40.6866C146.503 40.4973 146.263 40.4027 145.979 40.4027H141.509C140.862 40.4027 140.271 40.249 139.735 39.9415C139.206 39.6261 138.781 39.2082 138.457 38.6879C138.142 38.1596 137.984 37.5801 137.984 36.9493V36.6537Z" fill="#FDFDFD"/>
<path d="M124.24 35.743C124.24 35.0413 124.496 34.446 125.009 33.9572C125.521 33.4605 126.136 33.2121 126.854 33.2121H131.963C132.617 33.2121 133.209 33.3738 133.737 33.697C134.273 34.0124 134.699 34.4421 135.014 34.9861C135.337 35.5223 135.499 36.1175 135.499 36.7719V37.1149C135.499 37.7614 135.337 38.3528 135.014 38.8889C134.699 39.4172 134.273 39.8429 133.737 40.1662C133.209 40.4816 132.617 40.6392 131.963 40.6392H128.155V38.1557H131.987C132.27 38.1557 132.511 38.0532 132.708 37.8482C132.913 37.6432 133.015 37.3948 133.015 37.1031V36.7719C133.015 36.4723 132.913 36.22 132.708 36.015C132.511 35.81 132.27 35.7075 131.987 35.7075H126.736V41.9993C126.736 42.2674 126.826 42.496 127.008 42.6852C127.189 42.8745 127.41 42.9691 127.67 42.9691H134.636V45.4645H127.67C127.039 45.4645 126.464 45.3108 125.943 45.0033C125.423 44.6879 125.009 44.27 124.701 43.7496C124.394 43.2214 124.24 42.6419 124.24 42.0111V35.743Z" fill="#FDFDFD"/>
<path d="M115.726 36.6418C115.726 36.0111 115.883 35.4355 116.199 34.9152C116.522 34.3948 116.948 33.9809 117.476 33.6734C118.012 33.3659 118.604 33.2121 119.25 33.2121H121.982V35.6957H119.25C118.966 35.6957 118.722 35.7943 118.517 35.9914C118.32 36.1806 118.221 36.4132 118.221 36.6892V45.4645H115.726V36.6418Z" fill="#FDFDFD"/>
<path d="M105.603 33.2121H107.199V28.647H109.695V33.2121H113.467V35.7075H109.695V41.9875C109.695 42.2555 109.797 42.4881 110.002 42.6852C110.215 42.8745 110.467 42.9691 110.759 42.9691H113.467V45.4645H110.724C110.077 45.4645 109.486 45.3107 108.95 45.0033C108.421 44.6879 107.996 44.27 107.672 43.7496C107.357 43.2214 107.199 42.6379 107.199 41.9993V35.7075H105.603V33.2121Z" fill="#FDFDFD"/>
<path d="M92.0956 37.6116C92.0956 36.7995 92.2928 36.0623 92.687 35.4001C93.0891 34.7378 93.6252 34.2095 94.2954 33.8153C94.9656 33.4132 95.7067 33.2121 96.5188 33.2121H103.355V45.4645H100.859V35.7075H96.5188C95.9905 35.7075 95.5372 35.8968 95.1587 36.2752C94.7803 36.6458 94.5911 37.0991 94.5911 37.6353V41.0177C94.5911 41.5538 94.7803 42.0151 95.1587 42.4014C95.5372 42.7799 95.9905 42.9691 96.5188 42.9691H99.44V45.4645H96.5188C95.7067 45.4645 94.9656 45.2674 94.2954 44.8732C93.6252 44.4711 93.0891 43.9349 92.687 43.2647C92.2928 42.5946 92.0956 41.8534 92.0956 41.0413V37.6116Z" fill="#FDFDFD"/>
<path d="M78.3544 35.743C78.3544 35.0413 78.6107 34.446 79.1232 33.9572C79.6356 33.4605 80.2506 33.2121 80.9681 33.2121H86.0772C86.7316 33.2121 87.3229 33.3738 87.8512 33.697C88.3873 34.0124 88.8131 34.4421 89.1285 34.9861C89.4517 35.5223 89.6134 36.1175 89.6134 36.7719V37.1149C89.6134 37.7614 89.4517 38.3528 89.1285 38.8889C88.8131 39.4172 88.3873 39.8429 87.8512 40.1662C87.3229 40.4816 86.7316 40.6392 86.0772 40.6392H82.269V38.1557H86.1009C86.3847 38.1557 86.6252 38.0532 86.8223 37.8482C87.0273 37.6432 87.1298 37.3948 87.1298 37.1031V36.7719C87.1298 36.4723 87.0273 36.22 86.8223 36.015C86.6252 35.81 86.3847 35.7076 86.1009 35.7076H80.8498V41.9993C80.8498 42.2674 80.9405 42.496 81.1219 42.6853C81.3032 42.8745 81.524 42.9691 81.7841 42.9691H88.75V45.4645H81.7841C81.1534 45.4645 80.5778 45.3108 80.0575 45.0033C79.5371 44.6879 79.1232 44.27 78.8157 43.7496C78.5082 43.2214 78.3544 42.6419 78.3544 42.0111V35.743Z" fill="#FDFDFD"/>
<path d="M64.54 28.647H67.0354V33.2121H70.8909C71.7424 33.2121 72.5151 33.4132 73.2089 33.8153C73.9106 34.2095 74.4665 34.7417 74.8764 35.4119C75.2943 36.0742 75.5033 36.8114 75.5033 37.6234V45.4645H73.0078V37.6589C73.0078 37.1386 72.795 36.6852 72.3692 36.2989C71.9513 35.9046 71.4586 35.7075 70.8909 35.7075H67.0354V45.4645H64.54V28.647Z" fill="#FDFDFD"/>
<path d="M54.4404 33.2121H56.037V28.6471H58.5324V33.2121H62.3051V35.7075H58.5324V41.9875C58.5324 42.2555 58.6349 42.4881 58.8399 42.6852C59.0528 42.8745 59.3051 42.9691 59.5968 42.9691H62.3051V45.4645H59.5614C58.9148 45.4645 58.3235 45.3108 57.7874 45.0033C57.2591 44.6879 56.8333 44.27 56.5101 43.7496C56.1947 43.2214 56.037 42.6379 56.037 41.9993V35.7075H54.4404V33.2121Z" fill="#FDFDFD"/>
<path fill-rule="evenodd" clip-rule="evenodd" d="M32.7388 22.2128H22.3401V27.0441L14.334 22.2128V44.4256L22.3401 39.5943V44.4256H32.7388H45.1875V28.6423C48.7557 27.5803 51.3577 24.2749 51.3577 20.3617C51.3577 15.5909 47.4902 11.7234 42.7194 11.7234C37.9486 11.7234 34.0811 15.5909 34.0811 20.3617C34.0811 20.9971 34.1497 21.6165 34.2799 22.2128H32.7388ZM16.8021 26.5848V40.0535L22.3401 36.7116V29.9267L16.8021 26.5848ZM42.7194 41.9575H24.8082V38.1049L32.7388 33.3192L24.8082 28.5334V24.6809H35.2367C36.7303 27.2629 39.522 29 42.7194 29L42.7194 41.9575ZM48.8896 20.3617C48.8896 16.954 46.1271 14.1915 42.7194 14.1915C39.3117 14.1915 36.5492 16.954 36.5492 20.3617C36.5492 21.0066 36.6481 21.6284 36.8316 22.2128H45.1875V26.0185C47.3667 25.0664 48.8896 22.8919 48.8896 20.3617ZM27.9619 33.3192L24.8082 31.4161V35.2223L27.9619 33.3192ZM38.313 24.6809H42.7194L42.7194 26.5319C40.9933 26.5319 39.4328 25.8232 38.313 24.6809Z" fill="#FDFDFD"/>
</svg>
