<svg width="580" height="80" viewBox="0 0 580 80" fill="none" xmlns="http://www.w3.org/2000/svg">
<path d="M307.531 41.2692L307.592 25.8693L309.352 25.8762L310.11 28.7832L310.061 41.2791L307.531 41.2692ZM318.201 41.3111L309.031 29.241L309.352 25.8762L318.522 37.9464L318.201 41.3111ZM318.201 41.3111L317.442 38.6021L317.492 25.9082L320.022 25.9182L319.961 41.318L318.201 41.3111Z" fill="#FDFDFD"/>
<path d="M294.555 41.2182L294.615 25.8183L297.145 25.8282L297.085 41.2281L294.555 41.2182ZM296.293 41.225L296.302 38.915L304.926 38.9489L304.917 41.2589L296.293 41.225ZM296.319 34.471L296.328 32.2491L304.204 32.28L304.195 34.502L296.319 34.471ZM296.344 28.1351L296.353 25.8251L304.867 25.8586L304.858 28.1686L296.344 28.1351Z" fill="#FDFDFD"/>
<path d="M281.578 41.1671L281.639 25.7672L284.169 25.7772L284.108 41.1771L281.578 41.1671ZM283.316 41.174L283.325 38.864L291.949 38.8979L291.94 41.2079L283.316 41.174ZM283.343 34.42L283.351 32.198L291.227 32.229L291.219 34.451L283.343 34.42ZM283.368 28.0841L283.377 25.7741L291.891 25.8075L291.882 28.1175L283.368 28.0841Z" fill="#FDFDFD"/>
<path d="M269.83 34.5869L269.838 32.4969L273.732 32.5122C274.51 32.5153 275.112 32.3197 275.539 31.9253C275.98 31.5164 276.202 30.9526 276.205 30.2339C276.208 29.5886 275.997 29.0451 275.574 28.6034C275.15 28.1618 274.55 27.9394 273.772 27.9364L269.856 27.921L269.865 25.721L273.891 25.7368C274.859 25.7406 275.709 25.942 276.441 26.3408C277.172 26.725 277.735 27.2553 278.128 27.9315C278.536 28.5931 278.739 29.3492 278.735 30.1999C278.732 31.0945 278.523 31.8711 278.11 32.5294C277.712 33.1879 277.145 33.699 276.41 34.0628C275.675 34.4266 274.824 34.6065 273.856 34.6027L269.83 34.5869ZM268.066 41.114L268.127 25.7141L270.657 25.7241L270.596 41.124L268.066 41.114ZM276.514 41.1472L271.151 34.4381L273.508 33.5894L279.704 41.1598L276.514 41.1472Z" fill="#FDFDFD"/>
<path d="M260.044 41.3025C258.929 41.2981 257.896 41.096 256.944 40.6963C256.007 40.2819 255.188 39.714 254.487 38.9926C253.785 38.2565 253.246 37.4111 252.869 36.4562C252.491 35.4867 252.304 34.452 252.309 33.352C252.313 32.252 252.508 31.2261 252.893 30.2743C253.278 29.3078 253.824 28.4666 254.531 27.7507C255.238 27.0348 256.061 26.4734 257.001 26.0664C257.956 25.6595 258.991 25.4582 260.106 25.4626C261.352 25.4675 262.43 25.6771 263.337 26.0913C264.245 26.5055 265.05 27.066 265.751 27.7728L264.028 29.482C263.575 28.9816 263.02 28.5907 262.361 28.3095C261.716 28.0283 260.962 27.886 260.096 27.8826C259.334 27.8796 258.636 28.0088 258.005 28.2704C257.373 28.5319 256.822 28.911 256.35 29.4079C255.894 29.8901 255.539 30.468 255.287 31.1417C255.035 31.8154 254.908 32.5556 254.905 33.3622C254.902 34.1689 255.023 34.91 255.27 35.5857C255.517 36.2613 255.866 36.8494 256.319 37.3498C256.786 37.8356 257.335 38.2118 257.965 38.4783C258.594 38.7448 259.29 38.8795 260.053 38.8825C260.992 38.8862 261.784 38.75 262.431 38.4738C263.092 38.1831 263.651 37.7893 264.107 37.2924L265.817 39.0152C265.11 39.731 264.279 40.2925 263.324 40.6994C262.369 41.1063 261.276 41.3073 260.044 41.3025Z" fill="#FDFDFD"/>
<path d="M244.984 41.2433C243.767 41.2385 242.733 41.0144 241.885 40.5711C241.036 40.1277 240.276 39.4794 239.604 38.6261L241.327 36.9169C241.75 37.5345 242.254 38.0205 242.839 38.3748C243.425 38.7145 244.172 38.8861 245.081 38.8896C245.932 38.893 246.607 38.7196 247.107 38.3696C247.622 38.0196 247.881 37.5366 247.883 36.9206C247.885 36.4073 247.755 35.9888 247.492 35.6651C247.229 35.3414 246.878 35.076 246.439 34.8689C246.015 34.6473 245.539 34.4547 245.011 34.2913C244.499 34.1133 243.979 33.9206 243.452 33.7132C242.939 33.4912 242.463 33.218 242.025 32.8936C241.601 32.5692 241.258 32.1499 240.996 31.6355C240.734 31.1211 240.604 30.468 240.607 29.676C240.611 28.7666 240.834 27.9975 241.276 27.3686C241.734 26.725 242.344 26.2361 243.108 25.9018C243.872 25.5674 244.724 25.4021 245.662 25.4058C246.674 25.4098 247.575 25.6113 248.366 26.0104C249.171 26.4096 249.822 26.9182 250.318 27.5361L248.595 29.2454C248.157 28.745 247.697 28.3765 247.213 28.1399C246.745 27.8888 246.203 27.762 245.587 27.7595C244.824 27.7565 244.222 27.9082 243.781 28.2144C243.355 28.5208 243.14 28.9526 243.138 29.5099C243.136 29.9793 243.267 30.3611 243.53 30.6555C243.792 30.9352 244.136 31.1785 244.561 31.3855C245 31.5779 245.476 31.7631 245.989 31.9411C246.516 32.1192 247.036 32.3193 247.548 32.5413C248.075 32.7634 248.551 33.0512 248.975 33.4049C249.413 33.744 249.764 34.1853 250.026 34.729C250.287 35.2727 250.417 35.9553 250.414 36.7766C250.408 38.1552 249.912 39.246 248.927 40.0488C247.955 40.8516 246.641 41.2498 244.984 41.2433Z" fill="#FDFDFD"/>
<path d="M545.169 55.5H528.835C527.548 55.5 526.502 56.5465 526.502 57.8333V62.5H528.835V57.8333H545.169V74.1667H528.835V69.5H526.502V74.1667C526.502 75.4535 527.548 76.5 528.835 76.5H545.169C546.455 76.5 547.502 75.4535 547.502 74.1667V57.8333C547.502 56.5465 546.454 55.5 545.169 55.5Z" fill="#FDFDFD"/>
<path d="M535.833 70.6666L541.667 66L535.833 61.3333V64.8345H526.5V67.1678H535.833V70.6666Z" fill="#FDFDFD"/>
<path d="M1 25.5995C226.343 -6.08413 358.79 -5.64812 579.5 25.5995" stroke="#FDFDFD" stroke-width="4"/>
</svg>
