<svg width="35" height="28" viewBox="0 0 35 28" fill="none" xmlns="http://www.w3.org/2000/svg">
<path d="M0.544922 21.6667V6.19791H3.5332V21.6667H0.544922ZM4.76367 21.6667V6.19791H9.47461L10.7754 15.6286L12.0674 6.19791H16.8223V21.6667H13.9922V10.5221L12.2168 21.6667H9.43945L7.55859 10.5221V21.6667H4.76367ZM17.7715 21.6667L19.2656 6.19791H24.5127L25.9805 21.6667H23.0537L22.834 19.1706H20.9707L20.7773 21.6667H17.7715ZM21.1904 16.7008H22.5967L21.9199 8.83463H21.7793L21.1904 16.7008ZM26.4814 21.6667L28.1426 13.4665L26.8242 6.18912H29.8477L30.6475 11.5065L31.3594 6.18912H34.3916L33.0732 13.4665L34.7256 21.6667H31.5967L30.6211 15.6198L29.6191 21.6667H26.4814Z" fill="#FDFDFD"/>
<path d="M0.544922 21.6667V6.19791H3.5332V21.6667H0.544922ZM4.76367 21.6667V6.19791H9.47461L10.7754 15.6286L12.0674 6.19791H16.8223V21.6667H13.9922V10.5221L12.2168 21.6667H9.43945L7.55859 10.5221V21.6667H4.76367ZM17.7715 21.6667L19.2656 6.19791H24.5127L25.9805 21.6667H23.0537L22.834 19.1706H20.9707L20.7773 21.6667H17.7715ZM21.1904 16.7008H22.5967L21.9199 8.83463H21.7793L21.1904 16.7008ZM26.4814 21.6667L28.1426 13.4665L26.8242 6.18912H29.8477L30.6475 11.5065L31.3594 6.18912H34.3916L33.0732 13.4665L34.7256 21.6667H31.5967L30.6211 15.6198L29.6191 21.6667H26.4814Z" fill="#FDFDFD"/>
</svg>
