<svg width="35" height="27" viewBox="0 0 35 27" fill="none" xmlns="http://www.w3.org/2000/svg">
<path d="M0.544922 21V5.53125H3.5332V21H0.544922ZM4.76367 21V5.53125H9.47461L10.7754 14.9619L12.0674 5.53125H16.8223V21H13.9922V9.85547L12.2168 21H9.43945L7.55859 9.85547V21H4.76367ZM17.7715 21L19.2656 5.53125H24.5127L25.9805 21H23.0537L22.834 18.5039H20.9707L20.7773 21H17.7715ZM21.1904 16.0342H22.5967L21.9199 8.16797H21.7793L21.1904 16.0342ZM26.4814 21L28.1426 12.7998L26.8242 5.52246H29.8477L30.6475 10.8398L31.3594 5.52246H34.3916L33.0732 12.7998L34.7256 21H31.5967L30.6211 14.9531L29.6191 21H26.4814Z" fill="#1C1C1C"/>
<path d="M0.544922 21V5.53125H3.5332V21H0.544922ZM4.76367 21V5.53125H9.47461L10.7754 14.9619L12.0674 5.53125H16.8223V21H13.9922V9.85547L12.2168 21H9.43945L7.55859 9.85547V21H4.76367ZM17.7715 21L19.2656 5.53125H24.5127L25.9805 21H23.0537L22.834 18.5039H20.9707L20.7773 21H17.7715ZM21.1904 16.0342H22.5967L21.9199 8.16797H21.7793L21.1904 16.0342ZM26.4814 21L28.1426 12.7998L26.8242 5.52246H29.8477L30.6475 10.8398L31.3594 5.52246H34.3916L33.0732 12.7998L34.7256 21H31.5967L30.6211 14.9531L29.6191 21H26.4814Z" fill="#1C1C1C"/>
</svg>
