<svg width="58" height="28" viewBox="0 0 58 28" fill="none" xmlns="http://www.w3.org/2000/svg">
<path d="M1.26172 5.65494H3.53809V18.8737H6.64062V20.6667H1.26172V5.65494ZM11.0703 20.7985C10.8125 20.7985 10.5225 20.7721 10.2002 20.7194C9.88379 20.6725 9.56738 20.567 9.25098 20.403C8.93457 20.2331 8.64453 19.9782 8.38086 19.6383C8.11719 19.2926 7.90332 18.8297 7.73926 18.2497C7.58105 17.6696 7.50195 16.9372 7.50195 16.0524V5.65494H9.77832V16.5885C9.77832 17.5202 9.88086 18.1588 10.0859 18.5045C10.2969 18.8444 10.625 19.0143 11.0703 19.0143C11.5215 19.0143 11.8496 18.8444 12.0547 18.5045C12.2656 18.1588 12.3711 17.5202 12.3711 16.5885V5.65494H14.6387V16.0524C14.6387 16.9372 14.5566 17.6696 14.3926 18.2497C14.2344 18.8297 14.0234 19.2926 13.7598 19.6383C13.4961 19.9782 13.2061 20.2331 12.8896 20.403C12.5732 20.567 12.2568 20.6725 11.9404 20.7194C11.624 20.7721 11.334 20.7985 11.0703 20.7985ZM17.0996 5.65494H19.9209L21.4238 11.7282C21.582 12.3669 21.7051 12.9821 21.793 13.5739C21.8809 14.1598 21.9629 14.7077 22.0391 15.2174H22.1094C22.1914 14.7077 22.2734 14.1598 22.3555 13.5739C22.4434 12.9821 22.5664 12.3669 22.7246 11.7282L24.21 5.65494H27.0312V20.6667H24.9922V15.7008C24.9922 14.6813 25.0039 13.7233 25.0273 12.8268C25.0566 11.9303 25.0889 11.1452 25.124 10.4713C25.165 9.79752 25.2002 9.28482 25.2295 8.93326H25.0625L22.7949 18.7331H21.3535L19.0684 8.93326H18.9014C18.9365 9.28482 18.9717 9.79752 19.0068 10.4713C19.042 11.1452 19.0713 11.9303 19.0947 12.8268C19.124 13.7233 19.1387 14.6813 19.1387 15.7008V20.6667H17.0996V5.65494ZM29.5098 5.65494H31.7861V20.6667H29.5098V5.65494ZM34.2734 5.65494H40.0127V7.44791H36.5498V11.9391H39.2656V13.7321H36.5498V18.8737H40.0127V20.6667H34.2734V5.65494ZM41.375 5.65494H43.8447C44.1904 5.65494 44.5713 5.67545 44.9873 5.71646C45.4033 5.75748 45.8164 5.85123 46.2266 5.99771C46.6367 6.13834 47.0117 6.36392 47.3516 6.67447C47.6914 6.97916 47.9639 7.3981 48.1689 7.9313C48.3799 8.45865 48.4854 9.12955 48.4854 9.944V10.3219C48.4854 12.5719 47.8086 14.0192 46.4551 14.6637L48.9248 20.6667H46.499L44.4336 15.0504H43.6514V20.6667H41.375V5.65494ZM43.9502 13.4069C44.7822 13.4069 45.3535 13.2135 45.6641 12.8268C45.9805 12.4401 46.1387 11.7428 46.1387 10.735V9.54849C46.1387 8.77505 45.9893 8.2067 45.6904 7.84341C45.3975 7.48013 44.8174 7.29849 43.9502 7.29849H43.6514V13.4069H43.9502ZM50.6562 5.65494H56.3955V7.44791H52.9326V11.9391H55.6484V13.7321H52.9326V18.8737H56.3955V20.6667H50.6562V5.65494Z" fill="#FDFDFD"/>
<path d="M1.26172 5.65494H3.53809V18.8737H6.64062V20.6667H1.26172V5.65494ZM11.0703 20.7985C10.8125 20.7985 10.5225 20.7721 10.2002 20.7194C9.88379 20.6725 9.56738 20.567 9.25098 20.403C8.93457 20.2331 8.64453 19.9782 8.38086 19.6383C8.11719 19.2926 7.90332 18.8297 7.73926 18.2497C7.58105 17.6696 7.50195 16.9372 7.50195 16.0524V5.65494H9.77832V16.5885C9.77832 17.5202 9.88086 18.1588 10.0859 18.5045C10.2969 18.8444 10.625 19.0143 11.0703 19.0143C11.5215 19.0143 11.8496 18.8444 12.0547 18.5045C12.2656 18.1588 12.3711 17.5202 12.3711 16.5885V5.65494H14.6387V16.0524C14.6387 16.9372 14.5566 17.6696 14.3926 18.2497C14.2344 18.8297 14.0234 19.2926 13.7598 19.6383C13.4961 19.9782 13.2061 20.2331 12.8896 20.403C12.5732 20.567 12.2568 20.6725 11.9404 20.7194C11.624 20.7721 11.334 20.7985 11.0703 20.7985ZM17.0996 5.65494H19.9209L21.4238 11.7282C21.582 12.3669 21.7051 12.9821 21.793 13.5739C21.8809 14.1598 21.9629 14.7077 22.0391 15.2174H22.1094C22.1914 14.7077 22.2734 14.1598 22.3555 13.5739C22.4434 12.9821 22.5664 12.3669 22.7246 11.7282L24.21 5.65494H27.0312V20.6667H24.9922V15.7008C24.9922 14.6813 25.0039 13.7233 25.0273 12.8268C25.0566 11.9303 25.0889 11.1452 25.124 10.4713C25.165 9.79752 25.2002 9.28482 25.2295 8.93326H25.0625L22.7949 18.7331H21.3535L19.0684 8.93326H18.9014C18.9365 9.28482 18.9717 9.79752 19.0068 10.4713C19.042 11.1452 19.0713 11.9303 19.0947 12.8268C19.124 13.7233 19.1387 14.6813 19.1387 15.7008V20.6667H17.0996V5.65494ZM29.5098 5.65494H31.7861V20.6667H29.5098V5.65494ZM34.2734 5.65494H40.0127V7.44791H36.5498V11.9391H39.2656V13.7321H36.5498V18.8737H40.0127V20.6667H34.2734V5.65494ZM41.375 5.65494H43.8447C44.1904 5.65494 44.5713 5.67545 44.9873 5.71646C45.4033 5.75748 45.8164 5.85123 46.2266 5.99771C46.6367 6.13834 47.0117 6.36392 47.3516 6.67447C47.6914 6.97916 47.9639 7.3981 48.1689 7.9313C48.3799 8.45865 48.4854 9.12955 48.4854 9.944V10.3219C48.4854 12.5719 47.8086 14.0192 46.4551 14.6637L48.9248 20.6667H46.499L44.4336 15.0504H43.6514V20.6667H41.375V5.65494ZM43.9502 13.4069C44.7822 13.4069 45.3535 13.2135 45.6641 12.8268C45.9805 12.4401 46.1387 11.7428 46.1387 10.735V9.54849C46.1387 8.77505 45.9893 8.2067 45.6904 7.84341C45.3975 7.48013 44.8174 7.29849 43.9502 7.29849H43.6514V13.4069H43.9502ZM50.6562 5.65494H56.3955V7.44791H52.9326V11.9391H55.6484V13.7321H52.9326V18.8737H56.3955V20.6667H50.6562V5.65494Z" fill="#FDFDFD"/>
</svg>
