<svg width="58" height="27" viewBox="0 0 58 27" fill="none" xmlns="http://www.w3.org/2000/svg">
<path d="M1.26172 4.98828H3.53809V18.207H6.64062V20H1.26172V4.98828ZM11.0703 20.1318C10.8125 20.1318 10.5225 20.1055 10.2002 20.0527C9.88379 20.0059 9.56738 19.9004 9.25098 19.7363C8.93457 19.5664 8.64453 19.3115 8.38086 18.9717C8.11719 18.626 7.90332 18.1631 7.73926 17.583C7.58105 17.0029 7.50195 16.2705 7.50195 15.3857V4.98828H9.77832V15.9219C9.77832 16.8535 9.88086 17.4922 10.0859 17.8379C10.2969 18.1777 10.625 18.3477 11.0703 18.3477C11.5215 18.3477 11.8496 18.1777 12.0547 17.8379C12.2656 17.4922 12.3711 16.8535 12.3711 15.9219V4.98828H14.6387V15.3857C14.6387 16.2705 14.5566 17.0029 14.3926 17.583C14.2344 18.1631 14.0234 18.626 13.7598 18.9717C13.4961 19.3115 13.2061 19.5664 12.8896 19.7363C12.5732 19.9004 12.2568 20.0059 11.9404 20.0527C11.624 20.1055 11.334 20.1318 11.0703 20.1318ZM17.0996 4.98828H19.9209L21.4238 11.0615C21.582 11.7002 21.7051 12.3154 21.793 12.9072C21.8809 13.4932 21.9629 14.041 22.0391 14.5508H22.1094C22.1914 14.041 22.2734 13.4932 22.3555 12.9072C22.4434 12.3154 22.5664 11.7002 22.7246 11.0615L24.21 4.98828H27.0312V20H24.9922V15.0342C24.9922 14.0146 25.0039 13.0566 25.0273 12.1602C25.0566 11.2637 25.0889 10.4785 25.124 9.80469C25.165 9.13086 25.2002 8.61816 25.2295 8.2666H25.0625L22.7949 18.0664H21.3535L19.0684 8.2666H18.9014C18.9365 8.61816 18.9717 9.13086 19.0068 9.80469C19.042 10.4785 19.0713 11.2637 19.0947 12.1602C19.124 13.0566 19.1387 14.0146 19.1387 15.0342V20H17.0996V4.98828ZM29.5098 4.98828H31.7861V20H29.5098V4.98828ZM34.2734 4.98828H40.0127V6.78125H36.5498V11.2725H39.2656V13.0654H36.5498V18.207H40.0127V20H34.2734V4.98828ZM41.375 4.98828H43.8447C44.1904 4.98828 44.5713 5.00879 44.9873 5.0498C45.4033 5.09082 45.8164 5.18457 46.2266 5.33105C46.6367 5.47168 47.0117 5.69727 47.3516 6.00781C47.6914 6.3125 47.9639 6.73145 48.1689 7.26465C48.3799 7.79199 48.4854 8.46289 48.4854 9.27734V9.65527C48.4854 11.9053 47.8086 13.3525 46.4551 13.9971L48.9248 20H46.499L44.4336 14.3838H43.6514V20H41.375V4.98828ZM43.9502 12.7402C44.7822 12.7402 45.3535 12.5469 45.6641 12.1602C45.9805 11.7734 46.1387 11.0762 46.1387 10.0684V8.88184C46.1387 8.1084 45.9893 7.54004 45.6904 7.17676C45.3975 6.81348 44.8174 6.63184 43.9502 6.63184H43.6514V12.7402H43.9502ZM50.6562 4.98828H56.3955V6.78125H52.9326V11.2725H55.6484V13.0654H52.9326V18.207H56.3955V20H50.6562V4.98828Z" fill="#1C1C1C"/>
<path d="M1.26172 4.98828H3.53809V18.207H6.64062V20H1.26172V4.98828ZM11.0703 20.1318C10.8125 20.1318 10.5225 20.1055 10.2002 20.0527C9.88379 20.0059 9.56738 19.9004 9.25098 19.7363C8.93457 19.5664 8.64453 19.3115 8.38086 18.9717C8.11719 18.626 7.90332 18.1631 7.73926 17.583C7.58105 17.0029 7.50195 16.2705 7.50195 15.3857V4.98828H9.77832V15.9219C9.77832 16.8535 9.88086 17.4922 10.0859 17.8379C10.2969 18.1777 10.625 18.3477 11.0703 18.3477C11.5215 18.3477 11.8496 18.1777 12.0547 17.8379C12.2656 17.4922 12.3711 16.8535 12.3711 15.9219V4.98828H14.6387V15.3857C14.6387 16.2705 14.5566 17.0029 14.3926 17.583C14.2344 18.1631 14.0234 18.626 13.7598 18.9717C13.4961 19.3115 13.2061 19.5664 12.8896 19.7363C12.5732 19.9004 12.2568 20.0059 11.9404 20.0527C11.624 20.1055 11.334 20.1318 11.0703 20.1318ZM17.0996 4.98828H19.9209L21.4238 11.0615C21.582 11.7002 21.7051 12.3154 21.793 12.9072C21.8809 13.4932 21.9629 14.041 22.0391 14.5508H22.1094C22.1914 14.041 22.2734 13.4932 22.3555 12.9072C22.4434 12.3154 22.5664 11.7002 22.7246 11.0615L24.21 4.98828H27.0312V20H24.9922V15.0342C24.9922 14.0146 25.0039 13.0566 25.0273 12.1602C25.0566 11.2637 25.0889 10.4785 25.124 9.80469C25.165 9.13086 25.2002 8.61816 25.2295 8.2666H25.0625L22.7949 18.0664H21.3535L19.0684 8.2666H18.9014C18.9365 8.61816 18.9717 9.13086 19.0068 9.80469C19.042 10.4785 19.0713 11.2637 19.0947 12.1602C19.124 13.0566 19.1387 14.0146 19.1387 15.0342V20H17.0996V4.98828ZM29.5098 4.98828H31.7861V20H29.5098V4.98828ZM34.2734 4.98828H40.0127V6.78125H36.5498V11.2725H39.2656V13.0654H36.5498V18.207H40.0127V20H34.2734V4.98828ZM41.375 4.98828H43.8447C44.1904 4.98828 44.5713 5.00879 44.9873 5.0498C45.4033 5.09082 45.8164 5.18457 46.2266 5.33105C46.6367 5.47168 47.0117 5.69727 47.3516 6.00781C47.6914 6.3125 47.9639 6.73145 48.1689 7.26465C48.3799 7.79199 48.4854 8.46289 48.4854 9.27734V9.65527C48.4854 11.9053 47.8086 13.3525 46.4551 13.9971L48.9248 20H46.499L44.4336 14.3838H43.6514V20H41.375V4.98828ZM43.9502 12.7402C44.7822 12.7402 45.3535 12.5469 45.6641 12.1602C45.9805 11.7734 46.1387 11.0762 46.1387 10.0684V8.88184C46.1387 8.1084 45.9893 7.54004 45.6904 7.17676C45.3975 6.81348 44.8174 6.63184 43.9502 6.63184H43.6514V12.7402H43.9502ZM50.6562 4.98828H56.3955V6.78125H52.9326V11.2725H55.6484V13.0654H52.9326V18.207H56.3955V20H50.6562V4.98828Z" fill="#1C1C1C"/>
</svg>
