<svg width="49" height="27" viewBox="0 0 49 27" fill="none" xmlns="http://www.w3.org/2000/svg">
<path d="M3.744 12.942V9.702C3.744 9.486 3.708 9.348 3.636 9.288C3.576 9.216 3.432 9.18 3.204 9.18H0.216V7.866H3.69C4.278 7.866 4.704 8.004 4.968 8.28C5.244 8.544 5.382 8.934 5.382 9.45V13.194C5.382 13.71 5.244 14.106 4.968 14.382C4.704 14.646 4.278 14.778 3.69 14.778H0.792V13.482H3.204C3.432 13.482 3.576 13.446 3.636 13.374C3.708 13.302 3.744 13.158 3.744 12.942ZM0 7.866H1.62V19.134H0V7.866Z" fill="#1C1C1C"/>
<path d="M3.744 12.942V9.702C3.744 9.486 3.708 9.348 3.636 9.288C3.576 9.216 3.432 9.18 3.204 9.18H0.216V7.866H3.69C4.278 7.866 4.704 8.004 4.968 8.28C5.244 8.544 5.382 8.934 5.382 9.45V13.194C5.382 13.71 5.244 14.106 4.968 14.382C4.704 14.646 4.278 14.778 3.69 14.778H0.792V13.482H3.204C3.432 13.482 3.576 13.446 3.636 13.374C3.708 13.302 3.744 13.158 3.744 12.942ZM0 7.866H1.62V19.134H0V7.866Z" fill="#1C1C1C"/>
<path d="M10.1258 12.762V9.702C10.1258 9.486 10.0898 9.348 10.0178 9.288C9.95784 9.216 9.81384 9.18 9.58584 9.18H6.59784V7.866H10.0718C10.6598 7.866 11.0858 8.004 11.3498 8.28C11.6258 8.544 11.7638 8.934 11.7638 9.45V12.978C11.7638 13.506 11.6258 13.908 11.3498 14.184C11.0858 14.448 10.6598 14.58 10.0718 14.58H7.17384V13.284H9.58584C9.81384 13.284 9.95784 13.248 10.0178 13.176C10.0898 13.104 10.1258 12.966 10.1258 12.762ZM6.38184 7.866H8.00184V19.134H6.38184V7.866ZM8.64984 13.932H10.3058L12.3398 19.134H10.5758L8.64984 13.932Z" fill="#1C1C1C"/>
<path d="M10.1258 12.762V9.702C10.1258 9.486 10.0898 9.348 10.0178 9.288C9.95784 9.216 9.81384 9.18 9.58584 9.18H6.59784V7.866H10.0718C10.6598 7.866 11.0858 8.004 11.3498 8.28C11.6258 8.544 11.7638 8.934 11.7638 9.45V12.978C11.7638 13.506 11.6258 13.908 11.3498 14.184C11.0858 14.448 10.6598 14.58 10.0718 14.58H7.17384V13.284H9.58584C9.81384 13.284 9.95784 13.248 10.0178 13.176C10.0898 13.104 10.1258 12.966 10.1258 12.762ZM6.38184 7.866H8.00184V19.134H6.38184V7.866ZM8.64984 13.932H10.3058L12.3398 19.134H10.5758L8.64984 13.932Z" fill="#1C1C1C"/>
<path d="M13.3398 7.866H14.9778V19.134H13.3398V7.866ZM17.5698 12.654V13.968H14.2398V12.654H17.5698ZM18.1098 7.866V9.18H14.2038V7.866H18.1098ZM18.2358 17.82V19.134H14.2038V17.82H18.2358Z" fill="#1C1C1C"/>
<path d="M13.3398 7.866H14.9778V19.134H13.3398V7.866ZM17.5698 12.654V13.968H14.2398V12.654H17.5698ZM18.1098 7.866V9.18H14.2038V7.866H18.1098ZM18.2358 17.82V19.134H14.2038V17.82H18.2358Z" fill="#1C1C1C"/>
<path d="M23.6823 16.686H22.2063L20.6583 10.908V19.134H19.2363V7.866H21.0183L22.9443 14.85L24.8703 7.866H26.6523V19.134H25.2303V10.89L23.6823 16.686Z" fill="#1C1C1C"/>
<path d="M23.6823 16.686H22.2063L20.6583 10.908V19.134H19.2363V7.866H21.0183L22.9443 14.85L24.8703 7.866H26.6523V19.134H25.2303V10.89L23.6823 16.686Z" fill="#1C1C1C"/>
<path d="M27.6523 7.866H29.2723V19.134H27.6523V7.866Z" fill="#1C1C1C"/>
<path d="M27.6523 7.866H29.2723V19.134H27.6523V7.866Z" fill="#1C1C1C"/>
<path d="M30.2725 7.866H31.9105V19.134H30.2725V7.866ZM34.5025 12.654V13.968H31.1725V12.654H34.5025ZM35.0425 7.866V9.18H31.1365V7.866H35.0425ZM35.1685 17.82V19.134H31.1365V17.82H35.1685Z" fill="#1C1C1C"/>
<path d="M30.2725 7.866H31.9105V19.134H30.2725V7.866ZM34.5025 12.654V13.968H31.1725V12.654H34.5025ZM35.0425 7.866V9.18H31.1365V7.866H35.0425ZM35.1685 17.82V19.134H31.1365V17.82H35.1685Z" fill="#1C1C1C"/>
<path d="M39.912 12.762V9.702C39.912 9.486 39.876 9.348 39.804 9.288C39.744 9.216 39.6 9.18 39.372 9.18H36.384V7.866H39.858C40.446 7.866 40.872 8.004 41.136 8.28C41.412 8.544 41.55 8.934 41.55 9.45V12.978C41.55 13.506 41.412 13.908 41.136 14.184C40.872 14.448 40.446 14.58 39.858 14.58H36.96V13.284H39.372C39.6 13.284 39.744 13.248 39.804 13.176C39.876 13.104 39.912 12.966 39.912 12.762ZM36.168 7.866H37.788V19.134H36.168V7.866ZM38.436 13.932H40.092L42.126 19.134H40.362L38.436 13.932Z" fill="#1C1C1C"/>
<path d="M39.912 12.762V9.702C39.912 9.486 39.876 9.348 39.804 9.288C39.744 9.216 39.6 9.18 39.372 9.18H36.384V7.866H39.858C40.446 7.866 40.872 8.004 41.136 8.28C41.412 8.544 41.55 8.934 41.55 9.45V12.978C41.55 13.506 41.412 13.908 41.136 14.184C40.872 14.448 40.446 14.58 39.858 14.58H36.96V13.284H39.372C39.6 13.284 39.744 13.248 39.804 13.176C39.876 13.104 39.912 12.966 39.912 12.762ZM36.168 7.866H37.788V19.134H36.168V7.866ZM38.436 13.932H40.092L42.126 19.134H40.362L38.436 13.932Z" fill="#1C1C1C"/>
<path d="M43.126 7.866H44.764V19.134H43.126V7.866ZM47.356 12.654V13.968H44.026V12.654H47.356ZM47.896 7.866V9.18H43.99V7.866H47.896ZM48.022 17.82V19.134H43.99V17.82H48.022Z" fill="#1C1C1C"/>
<path d="M43.126 7.866H44.764V19.134H43.126V7.866ZM47.356 12.654V13.968H44.026V12.654H47.356ZM47.896 7.866V9.18H43.99V7.866H47.896ZM48.022 17.82V19.134H43.99V17.82H48.022Z" fill="#1C1C1C"/>
</svg>
