<svg width="49" height="28" viewBox="0 0 49 28" fill="none" xmlns="http://www.w3.org/2000/svg">
<path d="M3.744 13.6087V10.3687C3.744 10.1527 3.708 10.0147 3.636 9.95465C3.576 9.88265 3.432 9.84665 3.204 9.84665H0.216V8.53265H3.69C4.278 8.53265 4.704 8.67065 4.968 8.94665C5.244 9.21065 5.382 9.60065 5.382 10.1167V13.8607C5.382 14.3767 5.244 14.7727 4.968 15.0487C4.704 15.3127 4.278 15.4447 3.69 15.4447H0.792V14.1487H3.204C3.432 14.1487 3.576 14.1127 3.636 14.0407C3.708 13.9687 3.744 13.8247 3.744 13.6087ZM0 8.53265H1.62V19.8007H0V8.53265Z" fill="#FDFDFD"/>
<path d="M3.744 13.6087V10.3687C3.744 10.1527 3.708 10.0147 3.636 9.95465C3.576 9.88265 3.432 9.84665 3.204 9.84665H0.216V8.53265H3.69C4.278 8.53265 4.704 8.67065 4.968 8.94665C5.244 9.21065 5.382 9.60065 5.382 10.1167V13.8607C5.382 14.3767 5.244 14.7727 4.968 15.0487C4.704 15.3127 4.278 15.4447 3.69 15.4447H0.792V14.1487H3.204C3.432 14.1487 3.576 14.1127 3.636 14.0407C3.708 13.9687 3.744 13.8247 3.744 13.6087ZM0 8.53265H1.62V19.8007H0V8.53265Z" fill="#FDFDFD"/>
<path d="M10.1258 13.4287V10.3687C10.1258 10.1527 10.0898 10.0147 10.0178 9.95465C9.95784 9.88265 9.81384 9.84665 9.58584 9.84665H6.59784V8.53265H10.0718C10.6598 8.53265 11.0858 8.67065 11.3498 8.94665C11.6258 9.21065 11.7638 9.60065 11.7638 10.1167V13.6447C11.7638 14.1727 11.6258 14.5747 11.3498 14.8507C11.0858 15.1147 10.6598 15.2467 10.0718 15.2467H7.17384V13.9507H9.58584C9.81384 13.9507 9.95784 13.9147 10.0178 13.8427C10.0898 13.7707 10.1258 13.6327 10.1258 13.4287ZM6.38184 8.53265H8.00184V19.8007H6.38184V8.53265ZM8.64984 14.5987H10.3058L12.3398 19.8007H10.5758L8.64984 14.5987Z" fill="#FDFDFD"/>
<path d="M10.1258 13.4287V10.3687C10.1258 10.1527 10.0898 10.0147 10.0178 9.95465C9.95784 9.88265 9.81384 9.84665 9.58584 9.84665H6.59784V8.53265H10.0718C10.6598 8.53265 11.0858 8.67065 11.3498 8.94665C11.6258 9.21065 11.7638 9.60065 11.7638 10.1167V13.6447C11.7638 14.1727 11.6258 14.5747 11.3498 14.8507C11.0858 15.1147 10.6598 15.2467 10.0718 15.2467H7.17384V13.9507H9.58584C9.81384 13.9507 9.95784 13.9147 10.0178 13.8427C10.0898 13.7707 10.1258 13.6327 10.1258 13.4287ZM6.38184 8.53265H8.00184V19.8007H6.38184V8.53265ZM8.64984 14.5987H10.3058L12.3398 19.8007H10.5758L8.64984 14.5987Z" fill="#FDFDFD"/>
<path d="M13.3398 8.53265H14.9778V19.8007H13.3398V8.53265ZM17.5698 13.3207V14.6347H14.2398V13.3207H17.5698ZM18.1098 8.53265V9.84665H14.2038V8.53265H18.1098ZM18.2358 18.4867V19.8007H14.2038V18.4867H18.2358Z" fill="#FDFDFD"/>
<path d="M13.3398 8.53265H14.9778V19.8007H13.3398V8.53265ZM17.5698 13.3207V14.6347H14.2398V13.3207H17.5698ZM18.1098 8.53265V9.84665H14.2038V8.53265H18.1098ZM18.2358 18.4867V19.8007H14.2038V18.4867H18.2358Z" fill="#FDFDFD"/>
<path d="M23.6823 17.3527H22.2063L20.6583 11.5747V19.8007H19.2363V8.53265H21.0183L22.9443 15.5167L24.8703 8.53265H26.6523V19.8007H25.2303V11.5567L23.6823 17.3527Z" fill="#FDFDFD"/>
<path d="M23.6823 17.3527H22.2063L20.6583 11.5747V19.8007H19.2363V8.53265H21.0183L22.9443 15.5167L24.8703 8.53265H26.6523V19.8007H25.2303V11.5567L23.6823 17.3527Z" fill="#FDFDFD"/>
<path d="M27.6523 8.53265H29.2723V19.8007H27.6523V8.53265Z" fill="#FDFDFD"/>
<path d="M27.6523 8.53265H29.2723V19.8007H27.6523V8.53265Z" fill="#FDFDFD"/>
<path d="M30.2725 8.53265H31.9105V19.8007H30.2725V8.53265ZM34.5025 13.3207V14.6347H31.1725V13.3207H34.5025ZM35.0425 8.53265V9.84665H31.1365V8.53265H35.0425ZM35.1685 18.4867V19.8007H31.1365V18.4867H35.1685Z" fill="#FDFDFD"/>
<path d="M30.2725 8.53265H31.9105V19.8007H30.2725V8.53265ZM34.5025 13.3207V14.6347H31.1725V13.3207H34.5025ZM35.0425 8.53265V9.84665H31.1365V8.53265H35.0425ZM35.1685 18.4867V19.8007H31.1365V18.4867H35.1685Z" fill="#FDFDFD"/>
<path d="M39.912 13.4287V10.3687C39.912 10.1527 39.876 10.0147 39.804 9.95465C39.744 9.88265 39.6 9.84665 39.372 9.84665H36.384V8.53265H39.858C40.446 8.53265 40.872 8.67065 41.136 8.94665C41.412 9.21065 41.55 9.60065 41.55 10.1167V13.6447C41.55 14.1727 41.412 14.5747 41.136 14.8507C40.872 15.1147 40.446 15.2467 39.858 15.2467H36.96V13.9507H39.372C39.6 13.9507 39.744 13.9147 39.804 13.8427C39.876 13.7707 39.912 13.6327 39.912 13.4287ZM36.168 8.53265H37.788V19.8007H36.168V8.53265ZM38.436 14.5987H40.092L42.126 19.8007H40.362L38.436 14.5987Z" fill="#FDFDFD"/>
<path d="M39.912 13.4287V10.3687C39.912 10.1527 39.876 10.0147 39.804 9.95465C39.744 9.88265 39.6 9.84665 39.372 9.84665H36.384V8.53265H39.858C40.446 8.53265 40.872 8.67065 41.136 8.94665C41.412 9.21065 41.55 9.60065 41.55 10.1167V13.6447C41.55 14.1727 41.412 14.5747 41.136 14.8507C40.872 15.1147 40.446 15.2467 39.858 15.2467H36.96V13.9507H39.372C39.6 13.9507 39.744 13.9147 39.804 13.8427C39.876 13.7707 39.912 13.6327 39.912 13.4287ZM36.168 8.53265H37.788V19.8007H36.168V8.53265ZM38.436 14.5987H40.092L42.126 19.8007H40.362L38.436 14.5987Z" fill="#FDFDFD"/>
<path d="M43.126 8.53265H44.764V19.8007H43.126V8.53265ZM47.356 13.3207V14.6347H44.026V13.3207H47.356ZM47.896 8.53265V9.84665H43.99V8.53265H47.896ZM48.022 18.4867V19.8007H43.99V18.4867H48.022Z" fill="#FDFDFD"/>
<path d="M43.126 8.53265H44.764V19.8007H43.126V8.53265ZM47.356 13.3207V14.6347H44.026V13.3207H47.356ZM47.896 8.53265V9.84665H43.99V8.53265H47.896ZM48.022 18.4867V19.8007H43.99V18.4867H48.022Z" fill="#FDFDFD"/>
</svg>
